<?xml version="1.0" encoding="utf-8"?>
<!-- Generator: Adobe Illustrator 22.0.0, SVG Export Plug-In . SVG Version: 6.00 Build 0)  -->
<svg version="1.1" id="Layer_1" xmlns="http://www.w3.org/2000/svg" xmlns:xlink="http://www.w3.org/1999/xlink" x="0px" y="0px"
	 viewBox="0 0 350.3 76.5" style="enable-background:new 0 0 350.3 76.5;" xml:space="preserve">
<style type="text/css">
	.st0{fill:#9A98F4;}
</style>
<g>
	<g>
		<path class="st0" d="M76.8,38.2c-0.1-0.2-0.4-0.3-0.6-0.3l-4.9-0.1c-0.4,0-0.7,0.2-0.8,0.6c-0.4,1.4-1.1,2.5-2.3,3.3
			c-1.1,0.8-2.7,1.2-4.6,1.1c-2.7-0.1-4.7-1-6.2-2.8c-1.5-1.8-2.2-4.4-2.1-7.6c0.1-3.2,1-5.8,2.6-7.5c1.6-1.8,3.6-2.6,6.3-2.5
			c1.9,0.1,3.4,0.6,4.5,1.5c1.1,0.9,1.8,2.1,2.1,3.6c0.1,0.4,0.4,0.6,0.8,0.6l4.9,0.2c0.2,0,0.5-0.1,0.6-0.3
			c0.2-0.2,0.2-0.4,0.2-0.7c-0.5-3.2-1.9-5.7-4.2-7.5c-2.2-1.8-5.1-2.8-8.7-2.9c-3-0.1-5.6,0.5-7.9,1.8c-2.2,1.3-4,3.1-5.3,5.4
			c-1.3,2.3-1.9,5-2,8.1c-0.1,3,0.4,5.8,1.5,8.2c1.1,2.4,2.8,4.3,4.9,5.7c0.3,0.2,0.7,0.4,1.1,0.6c1.9,1,4.2,1.5,6.7,1.6
			c3.5,0.1,6.5-0.7,8.8-2.3c2.3-1.7,3.9-4,4.6-7.1C77,38.6,77,38.4,76.8,38.2z"/>
	</g>
	<g>
		<path class="st0" d="M100.1,31.8c-0.9-1.8-2.2-3.2-3.9-4.2c-1.6-1-3.5-1.6-5.6-1.6c-2.1-0.1-4,0.4-5.7,1.3
			c-1.7,0.9-3.1,2.2-4.1,3.9c-1,1.7-1.6,3.7-1.7,6c-0.1,2.3,0.4,4.3,1.3,6.1c0.9,1.8,2.2,3.2,3.9,4.2c0.2,0.1,0.5,0.3,0.7,0.4
			c1.5,0.8,3.1,1.2,4.9,1.2c2.1,0.1,4-0.4,5.7-1.3c1.7-0.9,3.1-2.2,4.2-3.9c1-1.7,1.6-3.7,1.7-6C101.5,35.6,101,33.5,100.1,31.8z
			 M87.6,42.9c-0.7-0.5-1.3-1.2-1.8-2.1c-0.5-0.9-0.7-2.1-0.6-3.5c0-1.4,0.3-2.6,0.8-3.4c0.5-0.9,1.2-1.5,1.9-2
			c0.8-0.4,1.6-0.6,2.5-0.6c0.8,0,1.5,0.2,2.1,0.5c0.1,0.1,0.3,0.1,0.4,0.2c0.8,0.5,1.3,1.1,1.8,2.1c0.4,0.9,0.6,2.1,0.6,3.5
			c0,1.4-0.3,2.6-0.8,3.5c-0.5,0.9-1.2,1.5-1.9,2c-0.8,0.4-1.6,0.6-2.5,0.6C89.1,43.7,88.3,43.4,87.6,42.9z"/>
	</g>
	<g>
		<path class="st0" d="M138.7,37.5c0.1-3.2-0.6-5.8-2.2-7.5c-1.5-1.8-3.8-2.7-6.5-2.8c-1.6,0-3.1,0.3-4.5,1c-1,0.5-1.9,1.2-2.6,2
			c-1.4-2.2-3.7-3.3-6.7-3.4c-1.6,0-3,0.2-4.2,0.9c-0.6,0.3-1.2,0.7-1.7,1.2l-0.1-1c0-0.4-0.4-0.7-0.8-0.7l-3.9-0.1
			c-0.2,0-0.4,0.1-0.6,0.2c-0.2,0.1-0.2,0.3-0.3,0.6l-0.6,20.4c0,0.3,0.2,0.6,0.4,0.7c0.1,0.1,0.2,0.1,0.3,0.1l4.4,0.1
			c0.2,0,0.4-0.1,0.6-0.2c0.2-0.1,0.2-0.3,0.3-0.6l0.3-10.6c0.1-1.9,0.5-3.4,1.4-4.4c0.9-0.9,1.9-1.4,3.2-1.3c1.3,0,2.2,0.4,2.8,1.3
			c0.6,0.9,0.9,2.2,0.9,4l-0.3,11.3c0,0.4,0.3,0.8,0.8,0.8l4.4,0.1c0.4,0,0.8-0.3,0.8-0.8l0.3-10.6c0.1-1.9,0.5-3.4,1.4-4.4
			c0.9-0.9,1.9-1.4,3.2-1.3c1.3,0,2.2,0.4,2.7,1.3c0.6,0.9,0.9,2.2,0.8,4L132.3,49c0,0.4,0.3,0.8,0.8,0.8l4.4,0.1
			c0.2,0,0.4-0.1,0.6-0.2c0.2-0.1,0.2-0.3,0.3-0.6L138.7,37.5z"/>
	</g>
	<g>
		<path class="st0" d="M143.2,24.9c0.3,0.3,0.6,0.5,0.9,0.7c0.5,0.3,1.1,0.4,1.7,0.4c1,0,1.9-0.3,2.6-0.9c0.7-0.6,1.1-1.5,1.1-2.5
			c0-1-0.3-1.8-1-2.5c-0.7-0.7-1.5-1-2.6-1.1c0,0,0,0,0,0c-1,0-1.9,0.3-2.6,0.9c-0.7,0.6-1.1,1.5-1.1,2.5
			C142.2,23.3,142.5,24.2,143.2,24.9z"/>
	</g>
	<g>
		<path class="st0" d="M148.6,29.1c0-0.4-0.3-0.8-0.8-0.8l-4.4-0.1c-0.2,0-0.4,0.1-0.6,0.2c-0.2,0.1-0.2,0.3-0.3,0.6L142,49.3
			c0,0.3,0.2,0.6,0.4,0.7c0.1,0.1,0.2,0.1,0.3,0.1l4.4,0.1c0.2,0,0.4-0.1,0.6-0.2c0.2-0.1,0.2-0.3,0.3-0.6L148.6,29.1z"/>
	</g>
	<g>
		<path class="st0" d="M173.2,38.6c0.1-3.2-0.6-5.8-2.1-7.5c-1.5-1.8-3.6-2.7-6.3-2.8c0,0,0,0,0,0c-1.7-0.1-3.3,0.3-4.7,1.1
			c-0.7,0.4-1.3,0.8-1.8,1.4l-0.1-1.4c0-0.4-0.4-0.7-0.8-0.8l-3.9-0.1c-0.2,0-0.4,0.1-0.6,0.2c-0.2,0.1-0.2,0.3-0.3,0.6L152,49.7
			c0,0.3,0.2,0.6,0.4,0.7c0.1,0.1,0.2,0.1,0.3,0.1l4.4,0.1c0.2,0,0.4-0.1,0.6-0.2c0.2-0.1,0.2-0.3,0.3-0.6l0.3-10.6
			c0.1-1.9,0.6-3.4,1.5-4.4c0.9-1,2.1-1.4,3.5-1.4c1.4,0,2.4,0.5,3,1.3c0.7,0.9,1,2.2,0.9,4l-0.3,11.3c0,0.2,0.1,0.4,0.2,0.6
			c0.1,0.2,0.3,0.2,0.6,0.3l4.3,0.1c0.4,0,0.8-0.3,0.8-0.8L173.2,38.6z"/>
	</g>
	<g>
		<path class="st0" d="M193.4,48.6c-1.3-1.2-3.4-2-6.3-2.3c-1.4-0.2-2.4-0.3-3.2-0.4c-0.7-0.1-1.3-0.2-1.7-0.4l0.6-0.6
			c0.8,0.2,1.8,0.3,2.7,0.4c1.8,0.1,3.5-0.3,4.8-0.9c1.4-0.7,2.4-1.6,3.2-2.8c0.8-1.2,1.2-2.6,1.2-4.1c0-1.1-0.1-2.1-0.5-3l2.4-0.1
			c0.4,0,0.8-0.4,0.8-0.8l0.1-2.9c0-0.2-0.1-0.4-0.2-0.6c-0.1-0.2-0.3-0.2-0.6-0.3l-7.5-0.2c-1-0.4-2.1-0.6-3.3-0.6
			c-1.9-0.1-3.5,0.3-4.9,0.9c-1.4,0.7-2.5,1.6-3.2,2.9c-0.8,1.2-1.2,2.6-1.2,4.1c-0.1,2.2,0.6,4,1.9,5.5l-3.1,3
			c-0.1,0.1-0.2,0.3-0.2,0.6l0,1c0,0.2,0.1,0.4,0.2,0.6c0.4,0.3,0.7,0.7,1.2,1c0.2,0.1,0.3,0.2,0.5,0.3c-0.6,0.6-1.1,1.1-1.5,1.8
			c-0.5,0.9-0.8,1.9-0.9,2.9c-0.1,2.5,0.9,4.4,2.9,5.7c0.3,0.2,0.6,0.3,0.9,0.5c1.7,0.9,3.9,1.4,6.4,1.5c2.2,0.1,4.1-0.2,5.6-0.9
			c1.5-0.7,2.7-1.6,3.4-2.8c0.8-1.2,1.2-2.5,1.2-3.8C195.4,51.5,194.7,49.8,193.4,48.6z M188.5,55.3c-0.8,0.5-1.9,0.8-3.2,0.7
			c-1.4,0-2.6-0.3-3.5-0.9c-0.8-0.5-1.1-1.1-1.1-2c0-0.4,0.2-0.9,0.5-1.4c0.3-0.4,0.8-0.8,1.5-1.2c1,0.2,2.1,0.3,3.3,0.4
			c2,0.2,2.7,0.6,3.1,0.9c0.5,0.4,0.7,0.9,0.6,1.5C189.6,54.2,189.2,54.8,188.5,55.3z M188.3,39.5c-0.7,0.5-1.5,0.8-2.6,0.7
			c-1.1,0-1.9-0.3-2.6-0.9c-0.6-0.5-0.9-1.3-0.8-2.3c0-1,0.3-1.8,1-2.2c0.7-0.5,1.5-0.8,2.6-0.7c0.7,0,1.4,0.2,1.9,0.4
			c0.2,0.1,0.4,0.3,0.6,0.4c0.6,0.5,0.9,1.3,0.8,2.3C189.2,38.2,188.9,39,188.3,39.5z"/>
	</g>
	<g>
		<path class="st0" d="M226.7,42c-0.8-0.9-1.8-1.6-3.1-2.1l0,0c-1.2-0.4-2.5-0.8-3.8-1.2c-1.3-0.4-2.3-0.7-3.1-1.2
			c-0.8-0.4-0.8-0.8-0.8-1c0-0.5,0.2-0.8,0.6-1.1c0.5-0.3,1.2-0.5,2.1-0.5c0.9,0,1.7,0.3,2.2,0.7c0.5,0.4,0.8,0.9,0.9,1.6
			c0.1,0.4,0.4,0.7,0.8,0.7l4.2,0.1c0.2,0,0.5-0.1,0.6-0.3c0.2-0.2,0.2-0.4,0.2-0.6c-0.2-2.2-1.1-4-2.6-5.3c-1.5-1.3-3.5-1.9-6-2
			c-2.7-0.1-4.8,0.5-6.4,1.8c-1.6,1.3-2.4,3-2.5,5c0,1.5,0.4,2.7,1.3,3.7c0.8,0.9,1.8,1.5,3.1,2c1.2,0.5,2.3,0.8,3.5,1.1
			c1.4,0.3,2.5,0.7,3.3,1.1c0.4,0.2,0.8,0.5,0.7,1.4c0,0.5-0.2,0.9-0.7,1.3c-0.5,0.4-1.3,0.6-2.4,0.5c-1.2,0-2-0.3-2.7-0.9
			c-0.7-0.6-1.1-1.2-1.2-2c-0.1-0.4-0.4-0.6-0.8-0.6l-4.4-0.1c-0.2,0-0.4,0.1-0.6,0.2c-0.2,0.2-0.2,0.4-0.2,0.6
			c0.2,2.3,1.2,4.2,3,5.7c0.5,0.4,1,0.7,1.6,1c1.5,0.8,3.2,1.2,5.2,1.3c2.7,0.1,4.9-0.5,6.6-1.8c1.7-1.3,2.6-3.1,2.6-5.2
			C227.9,44.3,227.5,42.9,226.7,42z"/>
	</g>
	<g>
		<path class="st0" d="M251,36.4c-0.9-1.8-2.2-3.2-3.9-4.2c0,0,0,0,0,0c-1.6-1-3.5-1.6-5.6-1.6c-2-0.1-4,0.4-5.7,1.3
			c-1.7,0.9-3.1,2.2-4.2,3.9c-1,1.7-1.6,3.7-1.7,6c-0.1,2.3,0.4,4.3,1.3,6.1c0.9,1.8,2.2,3.2,3.9,4.2c0.2,0.1,0.5,0.3,0.7,0.4
			c1.5,0.8,3.1,1.2,4.9,1.2c2.1,0.1,4-0.4,5.7-1.3c1.7-0.9,3.1-2.2,4.2-3.9c1-1.7,1.6-3.7,1.7-6S251.9,38.2,251,36.4z M238.5,47.6
			c-0.7-0.5-1.3-1.2-1.8-2.1s-0.7-2.1-0.6-3.5c0-1.4,0.3-2.6,0.8-3.5c0.5-0.9,1.2-1.5,1.9-2c0.8-0.4,1.6-0.6,2.5-0.6
			c0.8,0,1.5,0.2,2.1,0.5c0.1,0.1,0.2,0.1,0.4,0.2c0.7,0.5,1.3,1.2,1.8,2.1c0.4,0.9,0.7,2.1,0.6,3.5c0,1.4-0.3,2.6-0.8,3.5
			c-0.5,0.9-1.2,1.5-1.9,2c-0.8,0.4-1.6,0.6-2.5,0.6C240,48.3,239.2,48.1,238.5,47.6z"/>
	</g>
	<g>
		<path class="st0" d="M275.4,37.2c-0.9-1.8-2.2-3.2-3.9-4.2c-1.6-1-3.5-1.6-5.6-1.6c-2.1-0.1-4,0.4-5.7,1.3
			c-1.7,0.9-3.1,2.2-4.1,3.9c-1,1.7-1.6,3.7-1.7,6c-0.1,2.3,0.4,4.3,1.3,6.1c0.9,1.8,2.2,3.2,3.9,4.2c0.2,0.1,0.5,0.3,0.7,0.4
			c1.5,0.8,3.1,1.2,4.9,1.2c2.1,0.1,4-0.4,5.7-1.3c1.7-0.9,3.1-2.2,4.1-3.9c1-1.7,1.6-3.7,1.7-6C276.8,41,276.4,38.9,275.4,37.2z
			 M262.9,48.3c-0.7-0.5-1.3-1.2-1.8-2.1c-0.5-0.9-0.7-2.1-0.6-3.5c0-1.4,0.3-2.6,0.8-3.5c0.5-0.9,1.1-1.5,1.9-2
			c0.8-0.4,1.6-0.6,2.5-0.6c0.8,0,1.5,0.2,2.1,0.5c0.1,0.1,0.2,0.1,0.4,0.2c0.8,0.5,1.3,1.1,1.8,2.1c0.4,0.9,0.6,2.1,0.6,3.5
			c0,1.4-0.3,2.6-0.8,3.5c-0.5,0.9-1.1,1.5-1.9,2c-0.8,0.4-1.6,0.6-2.5,0.6C264.5,49.1,263.7,48.8,262.9,48.3z"/>
	</g>
	<g>
		<path class="st0" d="M300.5,42.5c0.1-3.2-0.6-5.8-2.1-7.5c-1.5-1.8-3.7-2.7-6.3-2.8c-1.7-0.1-3.3,0.3-4.7,1.1
			c-0.7,0.4-1.3,0.8-1.8,1.4l-0.1-1.4c0-0.4-0.4-0.7-0.8-0.8l-3.9-0.1c-0.4,0-0.8,0.3-0.8,0.8l-0.6,20.4c0,0.3,0.2,0.6,0.4,0.7
			c0.1,0.1,0.2,0.1,0.3,0.1l4.4,0.1c0.4,0,0.8-0.3,0.8-0.8l0.3-10.5c0.1-1.9,0.6-3.4,1.5-4.4c0.9-1,2.1-1.4,3.5-1.4
			c1.7,0.1,4,0.7,3.9,5.3L294.3,54c0,0.4,0.3,0.8,0.8,0.8l4.3,0.1c0.4,0,0.8-0.3,0.8-0.8L300.5,42.5z"/>
	</g>
	<g>
		<path class="st0" d="M348.8,68.3l1.5-49.3c0.1-4.7-3.5-8.6-8.2-8.7L10.3,0C8-0.1,5.8,0.8,4.2,2.3C2.5,3.9,1.6,6,1.5,8.2L0,57.6
			c-0.1,3.4,1.8,6.3,4.6,7.8c1.1,0.6,2.3,0.9,3.6,0.9L340,76.5C344.7,76.7,348.6,73,348.8,68.3z M343.7,16.9
			c0.5,0.5,0.7,1.2,0.7,1.9l-1.5,49.3c0,0.7-0.3,1.3-0.8,1.8c-0.5,0.5-1.2,0.7-1.9,0.7L8.4,60.4c-0.7,0-1.3-0.3-1.8-0.8
			c-0.5-0.5-0.7-1.2-0.7-1.9L7.4,8.4c0-1.4,1.3-2.6,2.7-2.5l331.8,10.2c0.4,0,0.8,0.1,1.1,0.3C343.3,16.5,343.5,16.7,343.7,16.9z"/>
	</g>
</g>
</svg>
