<?xml version="1.0" encoding="utf-8"?>
<!-- Generator: Adobe Illustrator 22.0.0, SVG Export Plug-In . SVG Version: 6.00 Build 0)  -->
<svg version="1.1" id="Layer_1" xmlns="http://www.w3.org/2000/svg" xmlns:xlink="http://www.w3.org/1999/xlink" x="0px" y="0px"
	 viewBox="0 0 474.5 86.4" style="enable-background:new 0 0 474.5 86.4;" xml:space="preserve">
<g>
	<path d="M48,47.2c-0.9,3.6-2.8,6.6-5.6,8.7c-2.8,2.2-6.6,3.3-11.5,3.3c-4.3,0-8.1-1-11.3-3c-3.2-2-5.7-4.8-7.4-8.5
		c-1.8-3.7-2.7-8.3-2.7-13.5s0.9-9.8,2.7-13.5c1.7-3.7,4.2-6.6,7.4-8.5c3.2-2,7-3,11.3-3c4.8,0,8.7,1.1,11.4,3.4
		c2.8,2.2,4.7,5.2,5.6,8.9l0.2,0.7h10.2l-0.2-1.1c-1.3-6.4-4.3-11.4-9-15C44.4,2.5,38.3,0.7,31,0.7c-6.3,0-11.9,1.4-16.5,4.3
		C9.9,7.8,6.3,11.8,3.8,16.8C1.3,21.8,0,27.7,0,34.2c0,6.6,1.3,12.5,3.8,17.5c2.5,5,6.1,9,10.7,11.8c4.6,2.8,10.1,4.2,16.4,4.2
		c7.4,0,13.5-1.8,18.1-5.3c4.7-3.5,7.7-8.5,9-14.8l0.2-1.1H48.2L48,47.2z"/>
	<rect x="62.3" width="9.4" height="66.6"/>
	<path d="M110.6,22.1c-3.3-2-7.2-3.1-11.7-3.1c-4.5,0-8.6,1-12,3c-3.5,2-6.2,4.9-8.1,8.5c-1.9,3.6-2.9,7.9-2.9,12.7
		c0,4.9,1,9.2,2.9,12.8c2,3.6,4.7,6.5,8.1,8.5c3.4,2,7.4,3.1,11.8,3.1c5.5,0,10-1.4,13.6-4.3c3.5-2.8,5.9-6.5,7.2-10.8l0.3-1.2h-9.3
		l-0.2,0.6c-0.9,2.3-2.3,4.1-4.3,5.4c-1.9,1.3-4.4,2-7.3,2c-2.2,0-4.4-0.5-6.4-1.6c-2-1.1-3.7-2.7-5-4.8c-1.2-1.9-1.9-4.3-2.2-7.1
		h35.5v-0.9c0-0.8,0-1.6,0-2.2c0-0.7,0-1.3,0-2c0-3.8-0.9-7.4-2.6-10.7C116.4,26.9,113.9,24.2,110.6,22.1z M98.7,27.3
		c3.5,0,6.5,1.1,8.9,3.2c2.2,2,3.4,4.5,3.8,7.9H85.4c0.5-3.4,2-6.1,4.3-8C92.3,28.3,95.4,27.3,98.7,27.3z"/>
	<path d="M143.9,19.1c-3.3,0-6.4,0.6-9.3,1.8c-2.9,1.2-5.4,3-7.4,5.3c-2,2.4-3.2,5.3-3.5,8.7l-0.1,1h9.5l0.1-0.7
		c0.5-2.6,1.7-4.5,3.6-5.9c2-1.4,4.4-2,7.1-2c3.2,0,5.7,0.9,7.6,2.8c1.8,1.8,2.7,4.4,2.8,7.8h-11.1c-6.2,0-11.1,1.3-14.7,3.9
		c-3.7,2.6-5.6,6.4-5.6,11.3c0,2.6,0.6,5.1,1.9,7.3c1.3,2.2,3.3,4.1,5.9,5.4c2.6,1.3,5.8,2,9.7,2c4.3,0,7.7-1,10.3-2.8
		c1.7-1.2,3.1-2.6,4.3-4.2l0.3,6h8.5V38.3c0-5.7-1.7-10.4-5-13.9C155.3,20.9,150.4,19.1,143.9,19.1z M141.4,59.5
		c-2.9,0-5.1-0.6-6.7-1.9c-1.5-1.2-2.2-2.8-2.2-4.9c0-2,0.8-3.7,2.4-5c1.7-1.4,4.6-2.1,8.8-2.1h10.5c-0.1,2.2-0.6,4.3-1.5,6.4
		c-1,2.2-2.5,4.1-4.4,5.5C146.4,58.8,144.1,59.5,141.4,59.5z"/>
	<path d="M182.9,21.8c-2.1,1.3-3.8,2.9-5.1,4.8l-0.5-6.5h-8.6v46.5h9.4V43.2c0-3.7,0.6-6.6,1.9-8.7c1.2-2,2.9-3.5,4.9-4.4
		c2.1-0.9,4.4-1.3,6.9-1.3h3v-9.7h-0.9C189.5,19.1,185.8,20,182.9,21.8z"/>
	<path d="M251.7,34.1c-2.4-1.5-5.2-2.8-8.3-3.9c-3.6-1.2-6.8-2.3-9.5-3.2c-2.6-0.9-4.7-2-6.1-3.4c-1.4-1.3-2-3.1-2-5.5
		c0-2.9,1-5.1,3-6.8c2-1.6,4.6-2.5,7.8-2.4c2.6,0,4.7,0.5,6.4,1.5c1.7,1,2.9,2.3,3.8,3.8c0.8,1.6,1.2,3.2,1.2,4.8V20h9.8l0-0.9
		c-0.1-3.5-1-6.7-2.7-9.5c-1.7-2.8-4.2-5-7.3-6.5c-3.1-1.6-6.8-2.3-10.9-2.3c-4.2,0-7.9,0.8-11,2.3c-3.1,1.5-5.6,3.7-7.3,6.5
		c-1.7,2.7-2.5,5.9-2.5,9.4c0,4.2,1.3,7.7,3.8,10.4c2.4,2.6,6.2,4.8,11.2,6.5c2.6,0.9,5.1,1.7,7.5,2.4c2.3,0.7,4.4,1.5,6.1,2.5
		c1.7,0.9,3.1,2.1,4,3.5c1,1.4,1.5,3.2,1.5,5.6c0,2.8-1,5.1-3.2,7c-2.2,1.9-5.3,2.8-9.3,2.8c-3.1,0-5.7-0.6-7.7-1.7
		c-2-1.1-3.6-2.7-4.6-4.6c-1.1-1.9-1.6-4.1-1.6-6.4v-0.9h-9.7v0.9c0,4.1,1,7.8,2.9,10.9c1.9,3.1,4.7,5.6,8.3,7.4
		c3.5,1.7,7.7,2.6,12.5,2.6c4.9,0,9-0.9,12.3-2.6c3.3-1.8,5.8-4.1,7.4-6.9c1.6-2.8,2.5-5.8,2.5-9c0-3.7-0.7-6.8-2.2-9.2
		C256.2,37.6,254.2,35.7,251.7,34.1z"/>
	<path d="M295.2,44.2c0,4.9-1.2,8.7-3.6,11.3c-2.4,2.6-5.3,3.9-8.9,3.9c-7.1,0-10.6-4.3-10.6-13V20.2h-9.4v27c0,6.9,1.7,12.1,5,15.4
		c3.3,3.4,7.8,5.1,13.3,5.1c3.6,0,6.8-0.9,9.6-2.6c2-1.2,3.7-2.7,5-4.5l0.3,6h8.6V20.2h-9.4V44.2z"/>
	<path d="M347.6,22.3L347.6,22.3c-3.4-2.1-7.5-3.2-12.1-3.2c-4.3,0-7.9,0.9-10.7,2.8c-2,1.3-3.6,2.7-5,4.2l-0.6-5.9h-8.6v66.3h9.4
		V61.2c1.4,1.7,3.1,3.1,5.2,4.2c3,1.6,6.4,2.4,10.2,2.4c4.6,0,8.7-1.1,12.1-3.1c3.5-2.1,6.2-5,8.1-8.6c1.9-3.6,2.8-7.8,2.8-12.4
		c0-4.6-1-8.8-2.8-12.5C353.7,27.3,351,24.4,347.6,22.3z M334.6,27.5c2.8,0,5.3,0.7,7.4,2c2.1,1.3,3.8,3.2,5.1,5.5
		c1.2,2.4,1.9,5.2,1.9,8.4s-0.6,6-1.9,8.4c-1.2,2.4-2.9,4.2-5.1,5.5c-2.1,1.3-4.6,2-7.4,2c-2.8,0-5.3-0.7-7.4-2
		c-2.1-1.3-3.8-3.2-5.1-5.5c-1.2-2.4-1.9-5.2-1.9-8.4c0-3.2,0.6-6,1.9-8.4c1.2-2.4,2.9-4.2,5.1-5.5
		C329.3,28.1,331.8,27.5,334.6,27.5z"/>
	<path d="M399.6,22.3L399.6,22.3c-3.4-2.1-7.5-3.2-12.1-3.2c-4.3,0-7.9,0.9-10.7,2.8c-2,1.3-3.6,2.7-5,4.2l-0.6-5.9h-8.6v66.3h9.4
		V61.2c1.4,1.7,3.1,3.1,5.2,4.2c3,1.6,6.4,2.4,10.2,2.4c4.6,0,8.7-1.1,12.1-3.1c3.5-2.1,6.2-5,8.1-8.6c1.9-3.6,2.8-7.8,2.8-12.4
		c0-4.6-1-8.8-2.8-12.5C405.8,27.3,403.1,24.4,399.6,22.3z M386.6,27.5c2.8,0,5.3,0.7,7.4,2c2.1,1.3,3.8,3.2,5.1,5.5
		c1.2,2.4,1.9,5.2,1.9,8.4s-0.6,6-1.9,8.4c-1.2,2.4-2.9,4.2-5.1,5.5c-2.1,1.3-4.6,2-7.4,2c-2.8,0-5.3-0.7-7.4-2
		c-2.1-1.3-3.8-3.2-5.1-5.5c-1.2-2.4-1.9-5.2-1.9-8.4c0-3.2,0.6-6,1.9-8.4c1.2-2.4,2.9-4.2,5.1-5.5
		C381.3,28.1,383.8,27.5,386.6,27.5z"/>
	<rect x="414.7" width="9.4" height="66.6"/>
	<polygon points="464.7,20.2 449.7,53.5 435.5,20.2 425.3,20.2 443.8,62.3 445.6,62.3 434.5,86.4 444.5,86.4 474.5,20.2 	"/>
</g>
</svg>
