<?xml version="1.0" encoding="utf-8"?>
<!-- Generator: Adobe Illustrator 22.0.0, SVG Export Plug-In . SVG Version: 6.00 Build 0)  -->
<svg version="1.1" id="Layer_1" xmlns="http://www.w3.org/2000/svg" xmlns:xlink="http://www.w3.org/1999/xlink" x="0px" y="0px"
	 viewBox="0 0 417.1 143.7" style="enable-background:new 0 0 417.1 143.7;" xml:space="preserve">
<style type="text/css">
	.st0{fill:#9A98F4;}
</style>
<g>
	<g>
		<path class="st0" d="M345.2,143.7H71.9C32.2,143.7,0,111.5,0,71.9v0C0,32.2,32.2,0,71.9,0h273.4c39.7,0,71.9,32.2,71.9,71.9v0
			C417.1,111.5,384.9,143.7,345.2,143.7z"/>
	</g>
	<g>
		<g>
			<path d="M128,81.8V57.6h7.4c4.3,0,7.4,1.1,9.4,3.2c2,2.2,3,5.1,3,8.9c0,3.7-1,6.6-3,8.8c-2,2.2-5.2,3.2-9.4,3.2H128z M130.9,79.4
				h4.5c2.3,0,4.2-0.4,5.6-1.2c1.4-0.8,2.4-1.9,3-3.3c0.6-1.4,0.9-3.1,0.9-5.1c0-2-0.3-3.8-0.9-5.2c-0.6-1.5-1.6-2.6-3-3.4
				c-1.4-0.8-3.3-1.2-5.6-1.2h-4.5V79.4z"/>
			<path d="M159.7,82.2c-1.6,0-3.1-0.4-4.4-1.1c-1.3-0.7-2.3-1.8-3.1-3.1c-0.7-1.3-1.1-2.9-1.1-4.8s0.4-3.4,1.1-4.8
				c0.8-1.3,1.8-2.4,3.1-3.1c1.3-0.7,2.8-1.1,4.4-1.1c1.6,0,3.1,0.4,4.4,1.1c1.3,0.7,2.3,1.8,3.1,3.1c0.7,1.3,1.1,2.9,1.1,4.8
				s-0.4,3.4-1.1,4.8c-0.8,1.3-1.8,2.4-3.1,3.1C162.7,81.9,161.3,82.2,159.7,82.2z M159.7,79.7c1,0,1.9-0.2,2.8-0.7
				c0.9-0.5,1.5-1.2,2.1-2.2c0.5-1,0.8-2.2,0.8-3.6s-0.3-2.6-0.8-3.6c-0.5-1-1.2-1.7-2.1-2.2s-1.8-0.7-2.7-0.7c-1,0-1.9,0.2-2.8,0.7
				c-0.9,0.5-1.5,1.2-2.1,2.2c-0.5,1-0.8,2.2-0.8,3.6s0.3,2.6,0.8,3.6c0.5,1,1.2,1.7,2.1,2.2C157.8,79.5,158.7,79.7,159.7,79.7z"/>
			<path d="M175.1,81.8l-5-17.1h2.9l3.6,13.4l4-13.4h3.3l4,13.4l3.6-13.4h2.9l-5,17.1h-3l-4.2-14.1l-4.2,14.1H175.1z"/>
			<path d="M197.7,81.8V64.7h2.6l0.2,3.1c0.6-1.1,1.3-1.9,2.4-2.6c1-0.6,2.2-0.9,3.5-0.9c2,0,3.6,0.6,4.9,1.8
				c1.2,1.2,1.8,3.1,1.8,5.7v10h-2.9v-9.7c0-3.6-1.5-5.4-4.4-5.4c-1.5,0-2.7,0.5-3.7,1.6c-1,1.1-1.5,2.6-1.5,4.6v8.9H197.7z"/>
			<path d="M217.5,81.8V56.9h2.9v24.9H217.5z"/>
			<path d="M232.9,82.2c-1.6,0-3.1-0.4-4.4-1.1c-1.3-0.7-2.3-1.8-3.1-3.1c-0.7-1.3-1.1-2.9-1.1-4.8s0.4-3.4,1.1-4.8
				c0.8-1.3,1.8-2.4,3.1-3.1c1.3-0.7,2.8-1.1,4.4-1.1c1.6,0,3.1,0.4,4.4,1.1c1.3,0.7,2.3,1.8,3.1,3.1c0.7,1.3,1.1,2.9,1.1,4.8
				s-0.4,3.4-1.1,4.8c-0.8,1.3-1.8,2.4-3.1,3.1C236,81.9,234.6,82.2,232.9,82.2z M232.9,79.7c1,0,1.9-0.2,2.8-0.7
				c0.9-0.5,1.5-1.2,2.1-2.2c0.5-1,0.8-2.2,0.8-3.6s-0.3-2.6-0.8-3.6c-0.5-1-1.2-1.7-2.1-2.2s-1.8-0.7-2.7-0.7c-1,0-1.9,0.2-2.8,0.7
				c-0.9,0.5-1.5,1.2-2.1,2.2c-0.5,1-0.8,2.2-0.8,3.6s0.3,2.6,0.8,3.6c0.5,1,1.2,1.7,2.1,2.2C231.1,79.5,232,79.7,232.9,79.7z"/>
			<path d="M251.3,82.2c-1.4,0-2.6-0.2-3.6-0.7c-0.9-0.5-1.6-1.1-2.1-1.9c-0.5-0.8-0.7-1.7-0.7-2.6c0-1.8,0.7-3.1,2-4
				c1.3-0.9,3.2-1.4,5.5-1.4h4.6v-0.2c0-1.5-0.4-2.6-1.2-3.4c-0.8-0.8-1.8-1.2-3.1-1.2c-1.1,0-2.1,0.3-2.9,0.8
				c-0.8,0.6-1.3,1.4-1.5,2.5h-3c0.1-1.2,0.5-2.3,1.3-3.1c0.7-0.9,1.6-1.5,2.7-2s2.2-0.7,3.5-0.7c2.4,0,4.2,0.6,5.4,1.9
				c1.2,1.3,1.8,3,1.8,5.1v10.5h-2.6l-0.2-3.1c-0.5,1-1.2,1.8-2.1,2.5C254.1,81.9,252.9,82.2,251.3,82.2z M251.7,79.8
				c1.1,0,2.1-0.3,2.9-0.9c0.8-0.6,1.4-1.3,1.8-2.2c0.4-0.9,0.6-1.9,0.6-2.9v0h-4.4c-1.7,0-2.9,0.3-3.6,0.9s-1.1,1.3-1.1,2.2
				c0,0.9,0.3,1.6,1,2.2C249.6,79.5,250.5,79.8,251.7,79.8z"/>
			<path d="M272.1,82.2c-1.7,0-3.2-0.4-4.5-1.2c-1.3-0.8-2.3-1.9-3-3.2c-0.7-1.4-1.1-2.9-1.1-4.6c0-1.7,0.4-3.3,1.1-4.6
				c0.7-1.3,1.7-2.4,3-3.2c1.3-0.8,2.8-1.2,4.5-1.2c1.4,0,2.6,0.3,3.7,0.9c1.1,0.6,1.9,1.4,2.5,2.4V56.9h2.9v24.9h-2.6l-0.3-2.8
				c-0.6,0.8-1.3,1.6-2.4,2.2C274.9,81.9,273.6,82.2,272.1,82.2z M272.4,79.7c1.2,0,2.2-0.3,3.1-0.8c0.9-0.5,1.6-1.3,2.1-2.3
				c0.5-1,0.7-2.1,0.7-3.4s-0.2-2.4-0.7-3.4c-0.5-1-1.2-1.7-2.1-2.3c-0.9-0.5-1.9-0.8-3.1-0.8c-1.1,0-2.1,0.3-3,0.8
				c-0.9,0.5-1.6,1.3-2.1,2.3c-0.5,1-0.7,2.1-0.7,3.4s0.2,2.4,0.7,3.4c0.5,1,1.2,1.7,2.1,2.3C270.2,79.4,271.2,79.7,272.4,79.7z"/>
			<path d="M294.4,81.8v-3.4l11.1-17.1h-11v-3.7h16.1V61l-11.2,17.1h11.3v3.7H294.4z"/>
			<path d="M314.6,81.8V57.6h4.4v24.2H314.6z"/>
			<path d="M323.8,81.8V57.6h8.9c1.9,0,3.5,0.3,4.8,1c1.3,0.6,2.2,1.5,2.8,2.7c0.6,1.1,0.9,2.4,0.9,3.8c0,1.3-0.3,2.6-0.9,3.7
				c-0.6,1.1-1.5,2-2.8,2.7c-1.3,0.7-2.9,1-4.9,1h-4.5v9.4H323.8z M328.2,68.8h4.2c1.5,0,2.7-0.3,3.3-1c0.7-0.7,1-1.6,1-2.8
				c0-1.2-0.3-2.1-1-2.8c-0.7-0.7-1.8-1-3.3-1h-4.2V68.8z"/>
		</g>
		<g>
			<g>
				<g>
					<path d="M74.8,91.7L57.2,74.1l2.1-2.1l17.6,17.6L74.8,91.7z"/>
				</g>
				<g>
					<path d="M72.8,89.7l17.6-17.6l2.1,2.1L74.8,91.7L72.8,89.7z"/>
				</g>
			</g>
			<g>
				<path d="M73.4,88.3V52h2.9v36.4H73.4z"/>
			</g>
		</g>
	</g>
</g>
</svg>
