<?xml version="1.0" encoding="utf-8"?>
<!-- Generator: Adobe Illustrator 22.0.0, SVG Export Plug-In . SVG Version: 6.00 Build 0)  -->
<svg version="1.1" id="Layer_1" xmlns="http://www.w3.org/2000/svg" xmlns:xlink="http://www.w3.org/1999/xlink" x="0px" y="0px"
	 viewBox="0 0 417.1 143.7" style="enable-background:new 0 0 417.1 143.7;" xml:space="preserve">
<style type="text/css">
	.st0{display:none;}
	.st1{display:inline;}
	.st2{fill:#9A98F4;}
	.st3{fill:#FFFFFF;}
</style>
<g class="st0">
	<g class="st1">
		<path class="st2" d="M345.2,143.7H71.9C32.2,143.7,0,111.5,0,71.9l0,0C0,32.2,32.2,0,71.9,0h273.4c39.7,0,71.9,32.2,71.9,71.9l0,0
			C417.1,111.5,384.9,143.7,345.2,143.7z"/>
	</g>
	<g class="st1">
		<g>
			<path d="M154.5,81.8V57.6h7.4c4.3,0,7.4,1.1,9.4,3.2c2,2.2,3,5.1,3,8.9c0,3.7-1,6.6-3,8.8c-2,2.2-5.2,3.2-9.4,3.2h-7.4V81.8z
				 M157.4,79.4h4.5c2.3,0,4.2-0.4,5.6-1.2c1.4-0.8,2.4-1.9,3-3.3s0.9-3.1,0.9-5.1s-0.3-3.8-0.9-5.2c-0.6-1.5-1.6-2.6-3-3.4
				c-1.4-0.8-3.3-1.2-5.6-1.2h-4.5V79.4z"/>
			<path d="M186.2,82.2c-1.6,0-3.1-0.4-4.4-1.1c-1.3-0.7-2.3-1.8-3.1-3.1c-0.7-1.3-1.1-2.9-1.1-4.8s0.4-3.4,1.1-4.8
				c0.8-1.3,1.8-2.4,3.1-3.1c1.3-0.7,2.8-1.1,4.4-1.1s3.1,0.4,4.4,1.1s2.3,1.8,3.1,3.1c0.7,1.3,1.1,2.9,1.1,4.8s-0.4,3.4-1.1,4.8
				c-0.8,1.3-1.8,2.4-3.1,3.1C189.2,81.9,187.8,82.2,186.2,82.2z M186.2,79.7c1,0,1.9-0.2,2.8-0.7s1.5-1.2,2.1-2.2
				c0.5-1,0.8-2.2,0.8-3.6s-0.3-2.6-0.8-3.6s-1.2-1.7-2.1-2.2c-0.9-0.5-1.8-0.7-2.7-0.7c-1,0-1.9,0.2-2.8,0.7
				c-0.9,0.5-1.5,1.2-2.1,2.2c-0.5,1-0.8,2.2-0.8,3.6s0.3,2.6,0.8,3.6s1.2,1.7,2.1,2.2C184.3,79.5,185.2,79.7,186.2,79.7z"/>
			<path d="M201.6,81.8l-5-17.1h2.9l3.6,13.4l4-13.4h3.3l4,13.4l3.6-13.4h2.9l-5,17.1h-3l-4.2-14.1l-4.2,14.1H201.6z"/>
			<path d="M224.2,81.8V64.7h2.6l0.2,3.1c0.6-1.1,1.3-1.9,2.4-2.6c1-0.6,2.2-0.9,3.5-0.9c2,0,3.6,0.6,4.9,1.8
				c1.2,1.2,1.8,3.1,1.8,5.7v10h-2.9v-9.7c0-3.6-1.5-5.4-4.4-5.4c-1.5,0-2.7,0.5-3.7,1.6s-1.5,2.6-1.5,4.6v8.9
				C227.1,81.8,224.2,81.8,224.2,81.8z"/>
			<path d="M244,81.8V56.9h2.9v24.9H244z"/>
			<path d="M259.4,82.2c-1.6,0-3.1-0.4-4.4-1.1s-2.3-1.8-3.1-3.1c-0.7-1.3-1.1-2.9-1.1-4.8s0.4-3.4,1.1-4.8c0.8-1.3,1.8-2.4,3.1-3.1
				c1.3-0.7,2.8-1.1,4.4-1.1c1.6,0,3.1,0.4,4.4,1.1c1.3,0.7,2.3,1.8,3.1,3.1c0.7,1.3,1.1,2.9,1.1,4.8s-0.4,3.4-1.1,4.8
				c-0.8,1.3-1.8,2.4-3.1,3.1C262.5,81.9,261.1,82.2,259.4,82.2z M259.4,79.7c1,0,1.9-0.2,2.8-0.7c0.9-0.5,1.5-1.2,2.1-2.2
				c0.5-1,0.8-2.2,0.8-3.6s-0.3-2.6-0.8-3.6s-1.2-1.7-2.1-2.2c-0.9-0.5-1.8-0.7-2.7-0.7c-1,0-1.9,0.2-2.8,0.7s-1.5,1.2-2.1,2.2
				c-0.5,1-0.8,2.2-0.8,3.6s0.3,2.6,0.8,3.6s1.2,1.7,2.1,2.2C257.6,79.5,258.5,79.7,259.4,79.7z"/>
			<path d="M277.8,82.2c-1.4,0-2.6-0.2-3.6-0.7c-0.9-0.5-1.6-1.1-2.1-1.9s-0.7-1.7-0.7-2.6c0-1.8,0.7-3.1,2-4
				c1.3-0.9,3.2-1.4,5.5-1.4h4.6v-0.2c0-1.5-0.4-2.6-1.2-3.4c-0.8-0.8-1.8-1.2-3.1-1.2c-1.1,0-2.1,0.3-2.9,0.8
				c-0.8,0.6-1.3,1.4-1.5,2.5h-3c0.1-1.2,0.5-2.3,1.3-3.1c0.7-0.9,1.6-1.5,2.7-2c1.1-0.5,2.2-0.7,3.5-0.7c2.4,0,4.2,0.6,5.4,1.9
				s1.8,3,1.8,5.1v10.5h-2.6l-0.2-3.1c-0.5,1-1.2,1.8-2.1,2.5C280.6,81.9,279.4,82.2,277.8,82.2z M278.2,79.8c1.1,0,2.1-0.3,2.9-0.9
				s1.4-1.3,1.8-2.2c0.4-0.9,0.6-1.9,0.6-2.9l0,0h-4.4c-1.7,0-2.9,0.3-3.6,0.9s-1.1,1.3-1.1,2.2c0,0.9,0.3,1.6,1,2.2
				C276.1,79.5,277,79.8,278.2,79.8z"/>
			<path d="M298.6,82.2c-1.7,0-3.2-0.4-4.5-1.2c-1.3-0.8-2.3-1.9-3-3.2c-0.7-1.4-1.1-2.9-1.1-4.6s0.4-3.3,1.1-4.6
				c0.7-1.3,1.7-2.4,3-3.2c1.3-0.8,2.8-1.2,4.5-1.2c1.4,0,2.6,0.3,3.7,0.9s1.9,1.4,2.5,2.4V56.9h2.9v24.9h-2.6l-0.3-2.8
				c-0.6,0.8-1.3,1.6-2.4,2.2C301.4,81.9,300.1,82.2,298.6,82.2z M298.9,79.7c1.2,0,2.2-0.3,3.1-0.8s1.6-1.3,2.1-2.3
				s0.7-2.1,0.7-3.4s-0.2-2.4-0.7-3.4s-1.2-1.7-2.1-2.3c-0.9-0.5-1.9-0.8-3.1-0.8c-1.1,0-2.1,0.3-3,0.8s-1.6,1.3-2.1,2.3
				s-0.7,2.1-0.7,3.4s0.2,2.4,0.7,3.4s1.2,1.7,2.1,2.3C296.7,79.4,297.7,79.7,298.9,79.7z"/>
			<path d="M320.9,81.8v-3.4L332,61.3h-11v-3.7h16.1V61l-11.2,17.1h11.3v3.7C337.2,81.8,320.9,81.8,320.9,81.8z"/>
			<path d="M341.1,81.8V57.6h4.4v24.2H341.1z"/>
			<path d="M350.3,81.8V57.6h8.9c1.9,0,3.5,0.3,4.8,1c1.3,0.6,2.2,1.5,2.8,2.7c0.6,1.1,0.9,2.4,0.9,3.8c0,1.3-0.3,2.6-0.9,3.7
				s-1.5,2-2.8,2.7s-2.9,1-4.9,1h-4.5v9.4L350.3,81.8L350.3,81.8z M354.7,68.8h4.2c1.5,0,2.7-0.3,3.3-1c0.7-0.7,1-1.6,1-2.8
				c0-1.2-0.3-2.1-1-2.8s-1.8-1-3.3-1h-4.2V68.8z"/>
		</g>
		<g>
			<g>
				<g>
					<path d="M101.3,91.7L83.7,74.1l2.1-2.1l17.6,17.6L101.3,91.7z"/>
				</g>
				<g>
					<path d="M99.3,89.7l17.6-17.6l2.1,2.1l-17.7,17.5L99.3,89.7z"/>
				</g>
			</g>
			<g>
				<path d="M99.9,88.3V52h2.9v36.4L99.9,88.3L99.9,88.3z"/>
			</g>
		</g>
	</g>
</g>
<g class="st0">
	<g class="st1">
		<g>
			<path d="M128,81.8V57.6h7.4c4.3,0,7.4,1.1,9.4,3.2c2,2.2,3,5.1,3,8.9c0,3.7-1,6.6-3,8.8c-2,2.2-5.2,3.2-9.4,3.2H128V81.8z
				 M130.9,79.4h4.5c2.3,0,4.2-0.4,5.6-1.2c1.4-0.8,2.4-1.9,3-3.3s0.9-3.1,0.9-5.1s-0.3-3.8-0.9-5.2c-0.6-1.5-1.6-2.6-3-3.4
				c-1.4-0.8-3.3-1.2-5.6-1.2h-4.5V79.4z"/>
		</g>
		<g>
			<path d="M159.7,82.2c-1.6,0-3.1-0.4-4.4-1.1c-1.3-0.7-2.3-1.8-3.1-3.1c-0.7-1.3-1.1-2.9-1.1-4.8s0.4-3.4,1.1-4.8
				c0.8-1.3,1.8-2.4,3.1-3.1s2.8-1.1,4.4-1.1c1.6,0,3.1,0.4,4.4,1.1c1.3,0.7,2.3,1.8,3.1,3.1c0.7,1.3,1.1,2.9,1.1,4.8
				s-0.4,3.4-1.1,4.8c-0.8,1.3-1.8,2.4-3.1,3.1C162.7,81.9,161.3,82.2,159.7,82.2z M159.7,79.7c1,0,1.9-0.2,2.8-0.7
				c0.9-0.5,1.5-1.2,2.1-2.2c0.5-1,0.8-2.2,0.8-3.6s-0.3-2.6-0.8-3.6s-1.2-1.7-2.1-2.2s-1.8-0.7-2.7-0.7c-1,0-1.9,0.2-2.8,0.7
				c-0.9,0.5-1.5,1.2-2.1,2.2c-0.5,1-0.8,2.2-0.8,3.6s0.3,2.6,0.8,3.6s1.2,1.7,2.1,2.2C157.8,79.5,158.7,79.7,159.7,79.7z"/>
		</g>
		<g>
			<polygon points="175.1,81.8 170.1,64.7 173,64.7 176.6,78.1 180.6,64.7 183.9,64.7 187.9,78.1 191.5,64.7 194.4,64.7 189.4,81.8 
				186.4,81.8 182.2,67.7 178,81.8 			"/>
		</g>
		<g>
			<path d="M197.7,81.8V64.7h2.6l0.2,3.1c0.6-1.1,1.3-1.9,2.4-2.6c1-0.6,2.2-0.9,3.5-0.9c2,0,3.6,0.6,4.9,1.8
				c1.2,1.2,1.8,3.1,1.8,5.7v10h-2.9v-9.7c0-3.6-1.5-5.4-4.4-5.4c-1.5,0-2.7,0.5-3.7,1.6s-1.5,2.6-1.5,4.6v8.9
				C200.6,81.8,197.7,81.8,197.7,81.8z"/>
		</g>
		<g>
			<rect x="217.5" y="56.9" width="2.9" height="24.9"/>
		</g>
		<g>
			<path d="M232.9,82.2c-1.6,0-3.1-0.4-4.4-1.1c-1.3-0.7-2.3-1.8-3.1-3.1c-0.7-1.3-1.1-2.9-1.1-4.8s0.4-3.4,1.1-4.8
				c0.8-1.3,1.8-2.4,3.1-3.1s2.8-1.1,4.4-1.1c1.6,0,3.1,0.4,4.4,1.1c1.3,0.7,2.3,1.8,3.1,3.1c0.7,1.3,1.1,2.9,1.1,4.8
				s-0.4,3.4-1.1,4.8c-0.8,1.3-1.8,2.4-3.1,3.1C236,81.9,234.6,82.2,232.9,82.2z M232.9,79.7c1,0,1.9-0.2,2.8-0.7
				c0.9-0.5,1.5-1.2,2.1-2.2c0.5-1,0.8-2.2,0.8-3.6s-0.3-2.6-0.8-3.6s-1.2-1.7-2.1-2.2s-1.8-0.7-2.7-0.7c-1,0-1.9,0.2-2.8,0.7
				c-0.9,0.5-1.5,1.2-2.1,2.2c-0.5,1-0.8,2.2-0.8,3.6s0.3,2.6,0.8,3.6s1.2,1.7,2.1,2.2S232,79.7,232.9,79.7z"/>
		</g>
		<g>
			<path d="M251.3,82.2c-1.4,0-2.6-0.2-3.6-0.7c-0.9-0.5-1.6-1.1-2.1-1.9s-0.7-1.7-0.7-2.6c0-1.8,0.7-3.1,2-4s3.2-1.4,5.5-1.4h4.6
				v-0.2c0-1.5-0.4-2.6-1.2-3.4s-1.8-1.2-3.1-1.2c-1.1,0-2.1,0.3-2.9,0.8c-0.8,0.6-1.3,1.4-1.5,2.5h-3c0.1-1.2,0.5-2.3,1.3-3.1
				c0.7-0.9,1.6-1.5,2.7-2s2.2-0.7,3.5-0.7c2.4,0,4.2,0.6,5.4,1.9s1.8,3,1.8,5.1v10.5h-2.6l-0.2-3.1c-0.5,1-1.2,1.8-2.1,2.5
				C254.1,81.9,252.9,82.2,251.3,82.2z M251.7,79.8c1.1,0,2.1-0.3,2.9-0.9c0.8-0.6,1.4-1.3,1.8-2.2c0.4-0.9,0.6-1.9,0.6-2.9l0,0
				h-4.4c-1.7,0-2.9,0.3-3.6,0.9s-1.1,1.3-1.1,2.2c0,0.9,0.3,1.6,1,2.2C249.6,79.5,250.5,79.8,251.7,79.8z"/>
		</g>
		<g>
			<path d="M272.1,82.2c-1.7,0-3.2-0.4-4.5-1.2c-1.3-0.8-2.3-1.9-3-3.2c-0.7-1.4-1.1-2.9-1.1-4.6s0.4-3.3,1.1-4.6
				c0.7-1.3,1.7-2.4,3-3.2c1.3-0.8,2.8-1.2,4.5-1.2c1.4,0,2.6,0.3,3.7,0.9s1.9,1.4,2.5,2.4V56.9h2.9v24.9h-2.6l-0.3-2.8
				c-0.6,0.8-1.3,1.6-2.4,2.2C274.9,81.9,273.6,82.2,272.1,82.2z M272.4,79.7c1.2,0,2.2-0.3,3.1-0.8s1.6-1.3,2.1-2.3
				s0.7-2.1,0.7-3.4s-0.2-2.4-0.7-3.4s-1.2-1.7-2.1-2.3c-0.9-0.5-1.9-0.8-3.1-0.8c-1.1,0-2.1,0.3-3,0.8s-1.6,1.3-2.1,2.3
				s-0.7,2.1-0.7,3.4s0.2,2.4,0.7,3.4s1.2,1.7,2.1,2.3C270.2,79.4,271.2,79.7,272.4,79.7z"/>
		</g>
		<g>
			<polygon points="294.4,81.8 294.4,78.4 305.5,61.3 294.5,61.3 294.5,57.6 310.6,57.6 310.6,61 299.4,78.1 310.7,78.1 310.7,81.8 
							"/>
		</g>
		<g>
			<rect x="314.6" y="57.6" width="4.4" height="24.2"/>
		</g>
		<g>
			<path d="M323.8,81.8V57.6h8.9c1.9,0,3.5,0.3,4.8,1c1.3,0.6,2.2,1.5,2.8,2.7c0.6,1.1,0.9,2.4,0.9,3.8c0,1.3-0.3,2.6-0.9,3.7
				s-1.5,2-2.8,2.7s-2.9,1-4.9,1h-4.5v9.4L323.8,81.8L323.8,81.8z M328.2,68.8h4.2c1.5,0,2.7-0.3,3.3-1c0.7-0.7,1-1.6,1-2.8
				c0-1.2-0.3-2.1-1-2.8s-1.8-1-3.3-1h-4.2V68.8z"/>
		</g>
	</g>
</g>
<g>
	<path class="st3" d="M104.8,63.2V38.7h2.9l13.1,19.6V38.7h2.9v24.5h-2.9l-13.1-19.6v19.6H104.8z"/>
	<path class="st3" d="M134.1,63.6c-1.4,0-2.6-0.2-3.6-0.7c-1-0.5-1.7-1.1-2.1-2c-0.5-0.8-0.7-1.7-0.7-2.7c0-1.8,0.7-3.1,2-4.1
		c1.4-1,3.2-1.4,5.5-1.4h4.7v-0.2c0-1.5-0.4-2.7-1.2-3.4c-0.8-0.8-1.9-1.2-3.2-1.2c-1.1,0-2.1,0.3-3,0.9c-0.8,0.6-1.3,1.4-1.6,2.5
		h-3c0.1-1.3,0.5-2.3,1.3-3.2c0.7-0.9,1.7-1.5,2.7-2c1.1-0.5,2.3-0.7,3.5-0.7c2.4,0,4.3,0.6,5.5,1.9s1.8,3,1.8,5.2v10.7h-2.6
		l-0.2-3.1c-0.5,1-1.2,1.8-2.2,2.5C137,63.2,135.7,63.6,134.1,63.6z M134.6,61.1c1.1,0,2.1-0.3,2.9-0.9c0.8-0.6,1.4-1.3,1.8-2.3
		s0.6-1.9,0.6-2.9v0h-4.4c-1.7,0-2.9,0.3-3.7,0.9c-0.7,0.6-1.1,1.3-1.1,2.2c0,0.9,0.3,1.6,1,2.2C132.4,60.8,133.4,61.1,134.6,61.1z"
		/>
	<path class="st3" d="M151.3,63.2l-6.6-17.4h3.1l5.2,14.5l5.3-14.5h3l-6.6,17.4H151.3z"/>
	<path class="st3" d="M165.9,41.9c-0.6,0-1.1-0.2-1.5-0.6c-0.4-0.4-0.6-0.9-0.6-1.5c0-0.6,0.2-1,0.6-1.4c0.4-0.4,0.9-0.6,1.5-0.6
		c0.6,0,1,0.2,1.4,0.6c0.4,0.4,0.6,0.8,0.6,1.4c0,0.6-0.2,1.1-0.6,1.5C167,41.8,166.5,41.9,165.9,41.9z M164.5,63.2V45.8h2.9v17.4
		H164.5z"/>
	<path class="st3" d="M179,57.7c-1,0-1.9-0.1-2.7-0.4l-1.8,1.6c0.3,0.2,0.6,0.3,1,0.5c0.4,0.1,0.9,0.2,1.7,0.3
		c0.7,0.1,1.7,0.2,3,0.3c2.3,0.2,4,0.7,5,1.6c1,0.9,1.5,2.1,1.5,3.6c0,1-0.3,2-0.8,2.9c-0.5,0.9-1.4,1.7-2.5,2.2
		c-1.1,0.6-2.6,0.9-4.4,0.9c-1.6,0-3-0.2-4.2-0.6c-1.2-0.4-2.2-1-2.8-1.9c-0.7-0.8-1-1.9-1-3.1c0-0.7,0.2-1.4,0.5-2.1
		c0.4-0.8,1-1.5,2-2.2c-0.5-0.2-1-0.4-1.3-0.7s-0.7-0.5-1-0.8v-0.8l3-2.9c-1.4-1.2-2.1-2.7-2.1-4.6c0-1.1,0.3-2.2,0.8-3.1
		c0.5-0.9,1.3-1.7,2.3-2.2c1-0.5,2.3-0.8,3.7-0.8c1,0,1.9,0.1,2.7,0.4h6.4V48l-3.3,0.1c0.7,1,1,2.1,1,3.4c0,1.1-0.3,2.2-0.8,3.1
		c-0.5,0.9-1.3,1.7-2.3,2.2C181.7,57.4,180.5,57.7,179,57.7z M173.9,65.4c0,1.2,0.5,2,1.5,2.6c1,0.6,2.2,0.9,3.7,0.9
		c1.4,0,2.6-0.3,3.5-0.9s1.3-1.5,1.3-2.5c0-0.7-0.3-1.4-0.9-1.9c-0.6-0.5-1.7-0.9-3.4-1c-1.3-0.1-2.4-0.2-3.3-0.3
		c-1,0.5-1.6,1.1-1.9,1.7C174.1,64.4,173.9,64.9,173.9,65.4z M179,55.3c1.2,0,2.2-0.3,3-1c0.7-0.6,1.1-1.6,1.1-2.8
		c0-1.2-0.4-2.1-1.1-2.7c-0.7-0.6-1.7-1-3-1c-1.3,0-2.3,0.3-3,1c-0.7,0.6-1.1,1.6-1.1,2.7c0,1.2,0.4,2.1,1.1,2.8
		C176.8,55,177.8,55.3,179,55.3z"/>
	<path class="st3" d="M196.9,63.6c-1.4,0-2.6-0.2-3.6-0.7c-1-0.5-1.7-1.1-2.1-2c-0.5-0.8-0.7-1.7-0.7-2.7c0-1.8,0.7-3.1,2-4.1
		c1.4-1,3.2-1.4,5.5-1.4h4.7v-0.2c0-1.5-0.4-2.7-1.2-3.4c-0.8-0.8-1.9-1.2-3.2-1.2c-1.1,0-2.1,0.3-3,0.9c-0.8,0.6-1.3,1.4-1.6,2.5
		h-3c0.1-1.3,0.5-2.3,1.3-3.2c0.7-0.9,1.7-1.5,2.7-2c1.1-0.5,2.3-0.7,3.5-0.7c2.4,0,4.3,0.6,5.5,1.9s1.8,3,1.8,5.2v10.7H203
		l-0.2-3.1c-0.5,1-1.2,1.8-2.2,2.5C199.8,63.2,198.5,63.6,196.9,63.6z M197.4,61.1c1.1,0,2.1-0.3,2.9-0.9c0.8-0.6,1.4-1.3,1.8-2.3
		s0.6-1.9,0.6-2.9v0h-4.4c-1.7,0-2.9,0.3-3.7,0.9c-0.7,0.6-1.1,1.3-1.1,2.2c0,0.9,0.3,1.6,1,2.2C195.2,60.8,196.2,61.1,197.4,61.1z"
		/>
	<path class="st3" d="M216.1,63.2c-1.6,0-2.8-0.4-3.7-1.2c-0.9-0.8-1.4-2.2-1.4-4.2v-9.6h-3v-2.5h3l0.4-4.2h2.6v4.2h5.1v2.5h-5.1
		v9.6c0,1.1,0.2,1.8,0.7,2.2c0.4,0.4,1.2,0.6,2.3,0.6h1.8v2.5H216.1z"/>
	<path class="st3" d="M229.7,63.6c-1.7,0-3.1-0.4-4.4-1.1c-1.3-0.8-2.3-1.8-3-3.2c-0.7-1.4-1.1-3-1.1-4.8c0-1.8,0.4-3.4,1.1-4.8
		c0.7-1.4,1.7-2.4,3-3.2c1.3-0.8,2.8-1.1,4.5-1.1c1.7,0,3.1,0.4,4.4,1.1c1.2,0.8,2.2,1.8,2.8,3s1,2.6,1,4c0,0.3,0,0.5,0,0.8
		c0,0.3,0,0.5,0,0.9h-13.8c0.1,1.3,0.4,2.4,0.9,3.3c0.5,0.9,1.2,1.5,2.1,2c0.8,0.4,1.7,0.7,2.6,0.7c1.2,0,2.2-0.3,3-0.8
		c0.8-0.6,1.4-1.3,1.8-2.3h2.9c-0.5,1.6-1.4,2.9-2.7,4C233.5,63,231.8,63.6,229.7,63.6z M229.7,47.9c-1.4,0-2.6,0.4-3.7,1.3
		c-1.1,0.9-1.7,2.1-1.9,3.7h10.9c-0.1-1.6-0.6-2.8-1.6-3.7C232.4,48.3,231.2,47.9,229.7,47.9z"/>
	<path class="st3" d="M253.9,63.2l-5.1-17.4h2.9l3.7,13.6l4.1-13.6h3.3l4.1,13.6l3.6-13.6h3l-5.1,17.4h-3l-4.3-14.3l-4.3,14.3H253.9
		z"/>
	<path class="st3" d="M278.3,41.9c-0.6,0-1.1-0.2-1.5-0.6c-0.4-0.4-0.6-0.9-0.6-1.5c0-0.6,0.2-1,0.6-1.4c0.4-0.4,0.9-0.6,1.5-0.6
		c0.6,0,1,0.2,1.4,0.6c0.4,0.4,0.6,0.8,0.6,1.4c0,0.6-0.2,1.1-0.6,1.5C279.3,41.8,278.8,41.9,278.3,41.9z M276.8,63.2V45.8h2.9v17.4
		H276.8z"/>
	<path class="st3" d="M291.3,63.2c-1.6,0-2.8-0.4-3.7-1.2c-0.9-0.8-1.4-2.2-1.4-4.2v-9.6h-3v-2.5h3l0.4-4.2h2.6v4.2h5.1v2.5h-5.1
		v9.6c0,1.1,0.2,1.8,0.7,2.2s1.2,0.6,2.3,0.6h1.8v2.5H291.3z"/>
	<path class="st3" d="M297.7,63.2V38h2.9v10.8c0.6-1.1,1.4-1.9,2.5-2.5c1.1-0.6,2.2-0.9,3.5-0.9c2,0,3.6,0.6,4.8,1.9
		c1.2,1.2,1.8,3.2,1.8,5.8v10.1h-2.9v-9.8c0-3.6-1.5-5.4-4.4-5.4c-1.5,0-2.8,0.5-3.8,1.6c-1,1.1-1.5,2.6-1.5,4.6v9H297.7z"/>
	<path class="st3" d="M127.8,101.6c-1.5,0-2.7-0.2-3.7-0.7c-1-0.5-1.7-1.1-2.1-1.9c-0.5-0.8-0.7-1.7-0.7-2.6c0-1.6,0.6-2.9,1.9-3.9
		c1.3-1,3.1-1.5,5.7-1.5h4.4v-0.4c0-1.2-0.3-2.1-1-2.6c-0.7-0.6-1.5-0.8-2.5-0.8c-0.9,0-1.7,0.2-2.4,0.6c-0.7,0.4-1.1,1.1-1.3,1.9
		h-4.4c0.1-1.3,0.5-2.4,1.3-3.3c0.7-0.9,1.7-1.7,2.9-2.2c1.2-0.5,2.5-0.8,3.9-0.8c2.5,0,4.4,0.6,5.8,1.9c1.4,1.2,2.1,3,2.1,5.3v10.7
		h-3.8l-0.4-2.8c-0.5,0.9-1.2,1.7-2.2,2.3C130.4,101.3,129.2,101.6,127.8,101.6z M128.8,98.1c1.3,0,2.3-0.4,3-1.3
		c0.7-0.8,1.2-1.9,1.3-3.1h-3.8c-1.2,0-2,0.2-2.6,0.6c-0.5,0.4-0.8,1-0.8,1.6c0,0.7,0.3,1.2,0.8,1.6C127.3,97.9,128,98.1,128.8,98.1
		z"/>
	<path class="st3" d="M141.6,101.2V83.8h4l0.4,3.3c0.6-1.1,1.5-2,2.6-2.7s2.4-1,3.8-1v4.7h-1.3c-1,0-1.9,0.2-2.6,0.5
		c-0.8,0.3-1.4,0.8-1.8,1.6c-0.4,0.7-0.6,1.8-0.6,3.1v7.9H141.6z"/>
	<path class="st3" d="M155.2,101.2V83.8h4l0.4,3.3c0.6-1.1,1.5-2,2.6-2.7s2.4-1,3.8-1v4.7h-1.3c-1,0-1.9,0.2-2.6,0.5
		c-0.8,0.3-1.4,0.8-1.8,1.6c-0.4,0.7-0.6,1.8-0.6,3.1v7.9H155.2z"/>
	<path class="st3" d="M176.7,101.6c-1.7,0-3.2-0.4-4.5-1.2c-1.3-0.8-2.4-1.8-3.2-3.2c-0.8-1.4-1.2-2.9-1.2-4.7s0.4-3.4,1.2-4.7
		c0.8-1.4,1.9-2.4,3.2-3.2s2.9-1.2,4.5-1.2c1.7,0,3.2,0.4,4.5,1.2c1.3,0.8,2.4,1.8,3.2,3.2c0.8,1.4,1.2,2.9,1.2,4.7
		s-0.4,3.4-1.2,4.7s-1.8,2.4-3.2,3.2C179.8,101.2,178.3,101.6,176.7,101.6z M176.7,97.7c1.2,0,2.2-0.4,3-1.3s1.3-2.2,1.3-3.9
		s-0.4-3-1.3-3.9s-1.9-1.3-3-1.3c-1.2,0-2.2,0.4-3.1,1.3c-0.9,0.9-1.3,2.2-1.3,3.9s0.4,3,1.3,3.9C174.5,97.3,175.5,97.7,176.7,97.7z
		"/>
	<path class="st3" d="M192,101.2l-5.1-17.4h4.4l3,12.5l3.5-12.5h5l3.5,12.5l3-12.5h4.4l-5.1,17.4h-4.7l-3.7-13l-3.7,13H192z"/>
	<path class="st3" d="M224.3,101.2V76h4.5v14.9l6.2-7h5.3l-7.1,7.9l8.3,9.5h-5.6l-7-8.7v8.7H224.3z"/>
	<path class="st3" d="M250.8,101.6c-1.8,0-3.3-0.4-4.7-1.1c-1.4-0.7-2.4-1.8-3.2-3.1c-0.8-1.4-1.2-2.9-1.2-4.7
		c0-1.8,0.4-3.4,1.1-4.8c0.8-1.4,1.8-2.5,3.1-3.3c1.3-0.8,2.9-1.2,4.7-1.2c1.7,0,3.2,0.4,4.5,1.1c1.3,0.7,2.3,1.8,3.1,3.1
		s1.1,2.7,1.1,4.3c0,0.3,0,0.5,0,0.8c0,0.3,0,0.6-0.1,0.9h-13.2c0.1,1.4,0.6,2.4,1.4,3.2c0.9,0.8,1.9,1.2,3.1,1.2
		c0.9,0,1.7-0.2,2.3-0.6s1.1-0.9,1.4-1.6h4.5c-0.3,1.1-0.9,2.1-1.6,3c-0.8,0.9-1.7,1.6-2.8,2.1C253.5,101.3,252.2,101.6,250.8,101.6
		z M250.8,87c-1.1,0-2.1,0.3-2.9,0.9c-0.8,0.6-1.4,1.6-1.6,2.8h8.6c-0.1-1.1-0.5-2.1-1.3-2.7C252.9,87.4,252,87,250.8,87z"/>
	<path class="st3" d="M264.3,108.9l4-8.9h-1l-6.8-16.2h4.9l4.9,12.2l5.1-12.2h4.8l-11,25.1H264.3z"/>
	<path class="st3" d="M289,101.6c-1.5,0-2.9-0.3-4.1-0.8c-1.2-0.5-2.1-1.2-2.8-2.1s-1.1-1.9-1.3-3.1h4.5c0.1,0.7,0.5,1.3,1.1,1.7
		c0.6,0.5,1.4,0.7,2.4,0.7c1,0,1.7-0.2,2.2-0.6s0.7-0.9,0.7-1.4c0-0.7-0.3-1.3-1-1.5s-1.6-0.5-2.7-0.8c-0.7-0.2-1.5-0.4-2.3-0.6
		c-0.8-0.2-1.5-0.5-2.1-0.9c-0.6-0.4-1.2-0.8-1.6-1.4c-0.4-0.6-0.6-1.3-0.6-2.1c0-1.5,0.6-2.8,1.8-3.9c1.2-1,2.9-1.6,5.2-1.6
		c2.1,0,3.7,0.5,4.9,1.4c1.2,1,2,2.3,2.2,4h-4.2c-0.3-1.3-1.2-1.9-2.9-1.9c-0.8,0-1.5,0.2-1.9,0.5c-0.5,0.3-0.7,0.7-0.7,1.2
		c0,0.5,0.3,0.9,1,1.2c0.7,0.3,1.6,0.6,2.7,0.8c1.2,0.3,2.3,0.6,3.3,0.9c1,0.3,1.8,0.8,2.4,1.5c0.6,0.7,0.9,1.6,0.9,2.9
		c0,1.1-0.3,2-0.8,2.9c-0.6,0.9-1.4,1.5-2.5,2C291.8,101.3,290.5,101.6,289,101.6z"/>
</g>
<g>
	<g>
		<g>
			<g>
				
					<rect x="-2.6" y="62.6" transform="matrix(0.7071 -0.7071 0.7071 0.7071 -42.4052 25.7248)" class="st3" width="24.9" height="3"/>
			</g>
			<g>
				<polygon class="st3" points="2,69.8 19.6,87.4 17.5,89.5 0,71.8 				"/>
			</g>
		</g>
	</g>
	<g>
		<g>
			<g>
				
					<rect x="394.8" y="78.2" transform="matrix(0.7071 -0.7071 0.7071 0.7071 62.9597 311.2982)" class="st3" width="24.9" height="3"/>
			</g>
			<g>
				<polygon class="st3" points="415.1,73.9 397.5,56.3 399.6,54.2 417.1,71.9 				"/>
			</g>
		</g>
	</g>
</g>
<g class="st0">
	<path class="st1" d="M345.3,2.9c38,0,69,31,69,69c-0.1,38-31.1,68.9-69.1,68.9H71.9c-38,0-69-30.9-69-68.9c0-38,31-69,69-69H345.3
		 M345.3,0H71.9C32.2,0,0,32.2,0,71.9c0,39.6,32.2,71.8,71.9,71.8h273.3c39.7,0,71.9-32.2,72-71.8C417.2,32.2,385,0,345.3,0L345.3,0
		z"/>
</g>
</svg>
